<svg width="1672" height="402" viewBox="0 0 1672 402" fill="none" xmlns="http://www.w3.org/2000/svg">
<path d="M74.3496 341.7C61.1496 341.7 49.4496 337.8 39.2496 330C29.0496 321.9 23.9496 307.65 23.9496 287.25V136.05H9.09961C6.09961 136.05 3.84961 135 2.34961 132.9C0.849609 130.8 0.0996094 127.35 0.0996094 122.55V117.15C0.0996094 112.35 0.849609 108.9 2.34961 106.8C3.84961 104.7 6.09961 103.65 9.09961 103.65H23.9496L29.3496 56.4001C29.9496 49.8001 34.7496 46.5001 43.7496 46.5001H48.2496C57.2496 46.5001 61.7496 49.8001 61.7496 56.4001V103.65H91.4496C94.7496 103.65 96.9996 104.7 98.1996 106.8C99.6996 108.9 100.45 112.35 100.45 117.15V122.55C100.45 127.35 99.6996 130.8 98.1996 132.9C96.9996 135 94.7496 136.05 91.4496 136.05H61.7496V280.95C61.7496 291.75 63.2496 299.25 66.2496 303.45C69.2496 307.35 73.5996 309.3 79.2996 309.3C83.1996 309.3 86.4996 309 89.1996 308.4C91.8996 307.5 93.6996 307.05 94.5996 307.05C97.2996 307.05 99.5496 309.75 101.35 315.15C103.15 320.55 104.05 325.05 104.05 328.65C104.05 333.45 100.9 336.9 94.5996 339C88.5996 340.8 81.8496 341.7 74.3496 341.7Z" fill="black"/>
<path d="M170.583 339.9C159.183 339.9 153.483 336.6 153.483 330V10.5001C153.483 3.9001 159.183 0.600098 170.583 0.600098H175.533C186.633 0.600098 192.183 3.9001 192.183 10.5001V131.1C198.483 121.8 206.283 114.45 215.583 109.05C225.183 103.65 235.683 100.95 247.083 100.95C263.583 100.95 277.233 106.8 288.033 118.5C299.133 129.9 304.683 147.45 304.683 171.15V330C304.683 336.6 298.983 339.9 287.583 339.9H283.083C271.683 339.9 265.983 336.6 265.983 330V174.75C265.983 161.55 263.283 151.5 257.883 144.6C252.483 137.4 244.533 133.8 234.033 133.8C223.833 133.8 214.833 137.4 207.033 144.6C199.233 151.8 194.283 158.7 192.183 165.3V330C192.183 336.6 186.483 339.9 175.083 339.9H170.583Z" fill="black"/>
<path d="M391.691 339.9C379.691 339.9 373.691 336.6 373.691 330V112.65C373.691 106.05 379.691 102.75 391.691 102.75H393.491C405.491 102.75 411.491 106.05 411.491 112.65V330C411.491 336.6 405.491 339.9 393.491 339.9H391.691ZM392.591 71.2501C379.391 71.2501 372.791 67.9501 372.791 61.3501V34.3501C372.791 27.7501 379.391 24.4501 392.591 24.4501C405.791 24.4501 412.391 27.7501 412.391 34.3501V61.3501C412.391 67.9501 405.791 71.2501 392.591 71.2501Z" fill="black"/>
<path d="M524.849 343.05C514.049 343.05 503.849 341.55 494.249 338.55C484.949 335.25 477.449 331.35 471.749 326.85C466.349 322.35 463.649 318.45 463.649 315.15C463.649 311.85 465.599 307.2 469.499 301.2C473.399 295.2 476.549 292.2 478.949 292.2C479.549 292.2 482.099 293.85 486.599 297.15C491.399 300.45 496.799 303.45 502.799 306.15C508.799 308.55 515.549 309.75 523.049 309.75C534.149 309.75 542.549 307.05 548.249 301.65C554.249 295.95 557.249 287.7 557.249 276.9C557.249 266.7 553.949 258.3 547.349 251.7C541.049 244.8 531.149 238.2 517.649 231.9C501.149 224.1 488.849 215.1 480.749 204.9C472.949 194.7 469.049 181.2 469.049 164.4C469.049 145.5 475.199 130.2 487.499 118.5C500.099 106.5 515.999 100.5 535.199 100.5C547.499 100.5 558.899 102.45 569.399 106.35C579.899 110.25 585.149 114.75 585.149 119.85C585.149 123.45 583.349 128.4 579.749 134.7C576.449 141 573.599 144.15 571.199 144.15C570.599 144.15 566.999 142.35 560.399 138.75C554.099 134.85 546.449 132.9 537.449 132.9C528.749 132.9 521.399 135.3 515.399 140.1C509.699 144.9 506.849 151.65 506.849 160.35C506.849 169.95 509.699 177.75 515.399 183.75C521.399 189.75 529.799 195.45 540.599 200.85C559.199 209.85 572.699 219.9 581.099 231C589.799 242.1 594.149 257.1 594.149 276C594.149 296.1 587.549 312.3 574.349 324.6C561.149 336.9 544.649 343.05 524.849 343.05Z" fill="black"/>
<path d="M609.241 401.1C603.541 401.1 600.691 398.1 600.691 392.1V388.5C600.691 382.5 603.541 379.5 609.241 379.5H799.591C805.291 379.5 808.141 382.5 808.141 388.5V392.1C808.141 398.1 805.291 401.1 799.591 401.1H609.241Z" fill="black"/>
<path d="M872.382 339.9C862.482 339.9 857.082 337.5 856.182 332.7L808.482 119.4C807.582 114 807.132 111 807.132 110.4C807.132 105.3 813.282 102.75 825.582 102.75C838.482 102.75 845.382 105.15 846.282 109.95L871.482 253.5L873.732 264.3L880.482 301.2H882.732C883.632 295.2 886.632 279.15 891.732 253.05L919.182 110.4C920.382 105.3 925.632 102.75 934.932 102.75H943.482C953.082 102.75 958.482 105.3 959.682 110.4L987.582 253.05L990.282 266.1C993.282 280.2 995.382 291.75 996.582 300.75H998.832L1003.78 273.3C1005.58 266.4 1006.93 259.8 1007.83 253.5L1032.58 109.95C1033.48 105.15 1040.38 102.75 1053.28 102.75C1064.98 102.75 1070.83 105.3 1070.83 110.4L1069.93 118.05L1021.78 332.7C1020.88 337.5 1015.48 339.9 1005.58 339.9H990.282C980.382 339.9 974.982 337.5 974.082 332.7L947.082 199.95C943.782 182.55 941.532 169.2 940.332 159.9H938.532C937.632 169.2 935.382 182.55 931.782 199.95L904.332 332.7C903.132 337.5 897.732 339.9 888.132 339.9H872.382Z" fill="black"/>
<path d="M1188.48 341.7C1156.68 341.7 1132.98 331.95 1117.38 312.45C1102.08 292.95 1094.43 263.1 1094.43 222.9C1094.43 183 1101.93 152.7 1116.93 132C1131.93 111.3 1153.98 100.95 1183.08 100.95C1209.18 100.95 1228.83 111 1242.03 131.1C1255.23 150.9 1261.83 180 1261.83 218.4C1261.83 221.1 1260.03 224.85 1256.43 229.65C1252.83 234.45 1249.68 236.85 1246.98 236.85H1134.93C1136.43 262.35 1141.23 280.8 1149.33 292.2C1157.43 303.6 1170.33 309.3 1188.03 309.3C1198.83 309.3 1207.83 307.8 1215.03 304.8C1222.23 301.8 1228.08 298.65 1232.58 295.35C1237.08 292.05 1239.78 290.4 1240.68 290.4C1243.68 290.4 1246.98 293.4 1250.58 299.4C1254.48 305.4 1256.43 309.9 1256.43 312.9C1256.43 316.5 1253.28 320.7 1246.98 325.5C1240.98 330 1232.73 333.9 1222.23 337.2C1211.73 340.2 1200.48 341.7 1188.48 341.7ZM1221.78 204.45C1221.78 157.05 1208.43 133.35 1181.73 133.35C1152.93 133.35 1137.33 157.05 1134.93 204.45H1221.78Z" fill="black"/>
<path d="M1390.63 341.7C1358.83 341.7 1335.13 331.95 1319.53 312.45C1304.23 292.95 1296.58 263.1 1296.58 222.9C1296.58 183 1304.08 152.7 1319.08 132C1334.08 111.3 1356.13 100.95 1385.23 100.95C1411.33 100.95 1430.98 111 1444.18 131.1C1457.38 150.9 1463.98 180 1463.98 218.4C1463.98 221.1 1462.18 224.85 1458.58 229.65C1454.98 234.45 1451.83 236.85 1449.13 236.85H1337.08C1338.58 262.35 1343.38 280.8 1351.48 292.2C1359.58 303.6 1372.48 309.3 1390.18 309.3C1400.98 309.3 1409.98 307.8 1417.18 304.8C1424.38 301.8 1430.23 298.65 1434.73 295.35C1439.23 292.05 1441.93 290.4 1442.83 290.4C1445.83 290.4 1449.13 293.4 1452.73 299.4C1456.63 305.4 1458.58 309.9 1458.58 312.9C1458.58 316.5 1455.43 320.7 1449.13 325.5C1443.13 330 1434.88 333.9 1424.38 337.2C1413.88 340.2 1402.63 341.7 1390.63 341.7ZM1423.93 204.45C1423.93 157.05 1410.58 133.35 1383.88 133.35C1355.08 133.35 1339.48 157.05 1337.08 204.45H1423.93Z" fill="black"/>
<path d="M1668.78 326.4C1670.88 329.7 1671.93 332.1 1671.93 333.6C1671.93 336 1670.58 337.65 1667.88 338.55C1665.18 339.45 1660.68 339.9 1654.38 339.9H1645.38C1640.58 339.9 1637.28 339.6 1635.48 339C1633.68 338.4 1631.88 336.75 1630.08 334.05L1559.88 222.9H1557.18V330C1557.18 336.6 1551.63 339.9 1540.53 339.9H1535.58C1524.18 339.9 1518.48 336.6 1518.48 330V10.5001C1518.48 3.9001 1524.18 0.600098 1535.58 0.600098H1540.53C1551.63 0.600098 1557.18 3.9001 1557.18 10.5001V211.65H1559.43L1624.68 109.05C1627.08 104.85 1633.53 102.75 1644.03 102.75H1653.03C1657.83 102.75 1661.43 103.35 1663.83 104.55C1666.53 105.45 1667.88 106.8 1667.88 108.6C1667.88 111 1666.68 114.15 1664.28 118.05L1599.03 217.05L1668.78 326.4Z" fill="black"/>
</svg>
