<svg width="619" height="120" viewBox="0 0 619 120" fill="none" xmlns="http://www.w3.org/2000/svg">
<path d="M19 94.25C16.25 94.25 14.75 93.5833 14.5 92.25L1.25 33C1 31.5 0.875 30.6667 0.875 30.5C0.875 29.0833 2.58333 28.375 6 28.375C9.58333 28.375 11.5 29.0417 11.75 30.375L18.75 70.25L19.375 73.25L21.25 83.5H21.875C22.125 81.8333 22.9583 77.375 24.375 70.125L32 30.5C32.3333 29.0833 33.7917 28.375 36.375 28.375H38.75C41.4167 28.375 42.9167 29.0833 43.25 30.5L51 70.125L51.75 73.75C52.5833 77.6667 53.1667 80.875 53.5 83.375H54.125L55.5 75.75C56 73.8333 56.375 72 56.625 70.25L63.5 30.375C63.75 29.0417 65.6667 28.375 69.25 28.375C72.5 28.375 74.125 29.0833 74.125 30.5L73.875 32.625L60.5 92.25C60.25 93.5833 58.75 94.25 56 94.25H51.75C49 94.25 47.5 93.5833 47.25 92.25L39.75 55.375C38.8333 50.5417 38.2083 46.8333 37.875 44.25H37.375C37.125 46.8333 36.5 50.5417 35.5 55.375L27.875 92.25C27.5417 93.5833 26.0417 94.25 23.375 94.25H19ZM106.806 94.75C97.9723 94.75 91.389 92.0417 87.0557 86.625C82.8057 81.2083 80.6807 72.9167 80.6807 61.75C80.6807 50.6667 82.764 42.25 86.9307 36.5C91.0973 30.75 97.2223 27.875 105.306 27.875C112.556 27.875 118.014 30.6667 121.681 36.25C125.347 41.75 127.181 49.8333 127.181 60.5C127.181 61.25 126.681 62.2917 125.681 63.625C124.681 64.9583 123.806 65.625 123.056 65.625H91.9307C92.3473 72.7083 93.6807 77.8333 95.9307 81C98.1807 84.1667 101.764 85.75 106.681 85.75C109.681 85.75 112.181 85.3333 114.181 84.5C116.181 83.6667 117.806 82.7917 119.056 81.875C120.306 80.9583 121.056 80.5 121.306 80.5C122.139 80.5 123.056 81.3333 124.056 83C125.139 84.6667 125.681 85.9167 125.681 86.75C125.681 87.75 124.806 88.9167 123.056 90.25C121.389 91.5 119.097 92.5833 116.181 93.5C113.264 94.3333 110.139 94.75 106.806 94.75ZM116.056 56.625C116.056 43.4583 112.347 36.875 104.931 36.875C96.9307 36.875 92.5973 43.4583 91.9307 56.625H116.056ZM162.958 94.75C154.125 94.75 147.541 92.0417 143.208 86.625C138.958 81.2083 136.833 72.9167 136.833 61.75C136.833 50.6667 138.916 42.25 143.083 36.5C147.25 30.75 153.375 27.875 161.458 27.875C168.708 27.875 174.166 30.6667 177.833 36.25C181.5 41.75 183.333 49.8333 183.333 60.5C183.333 61.25 182.833 62.2917 181.833 63.625C180.833 64.9583 179.958 65.625 179.208 65.625H148.083C148.5 72.7083 149.833 77.8333 152.083 81C154.333 84.1667 157.916 85.75 162.833 85.75C165.833 85.75 168.333 85.3333 170.333 84.5C172.333 83.6667 173.958 82.7917 175.208 81.875C176.458 80.9583 177.208 80.5 177.458 80.5C178.291 80.5 179.208 81.3333 180.208 83C181.291 84.6667 181.833 85.9167 181.833 86.75C181.833 87.75 180.958 88.9167 179.208 90.25C177.541 91.5 175.25 92.5833 172.333 93.5C169.416 94.3333 166.291 94.75 162.958 94.75ZM172.208 56.625C172.208 43.4583 168.5 36.875 161.083 36.875C153.083 36.875 148.75 43.4583 148.083 56.625H172.208ZM240.221 90.5C240.804 91.4167 241.096 92.0833 241.096 92.5C241.096 93.1667 240.721 93.625 239.971 93.875C239.221 94.125 237.971 94.25 236.221 94.25H233.721C232.387 94.25 231.471 94.1667 230.971 94C230.471 93.8333 229.971 93.375 229.471 92.625L209.971 61.75H209.221V91.5C209.221 93.3333 207.679 94.25 204.596 94.25H203.221C200.054 94.25 198.471 93.3333 198.471 91.5V2.75C198.471 0.916663 200.054 -4.23193e-06 203.221 -4.23193e-06H204.596C207.679 -4.23193e-06 209.221 0.916663 209.221 2.75V58.625H209.846L227.971 30.125C228.637 28.9583 230.429 28.375 233.346 28.375H235.846C237.179 28.375 238.179 28.5417 238.846 28.875C239.596 29.125 239.971 29.5 239.971 30C239.971 30.6667 239.637 31.5417 238.971 32.625L220.846 60.125L240.221 90.5ZM266.989 94.75C263.573 94.75 260.489 93.6667 257.739 91.5C255.073 89.25 253.739 85.2917 253.739 79.625V2.75C253.739 0.916663 255.406 -4.23193e-06 258.739 -4.23193e-06H259.239C262.573 -4.23193e-06 264.239 0.916663 264.239 2.75V78.625C264.239 83.375 265.781 85.75 268.864 85.75C269.864 85.75 270.698 85.6667 271.364 85.5C272.031 85.25 272.531 85.125 272.864 85.125C273.614 85.125 274.239 85.9167 274.739 87.5C275.239 89 275.489 90.1667 275.489 91C275.489 92.25 274.573 93.2083 272.739 93.875C270.906 94.4583 268.989 94.75 266.989 94.75ZM320.085 28.375C323.252 28.375 324.835 29.0833 324.835 30.5C324.835 30.9167 324.668 31.6667 324.335 32.75L299.835 117.375C299.252 119.125 297.585 120 294.835 120H292.21C289.543 120 288.21 119.333 288.21 118C288.21 117.667 288.377 116.958 288.71 115.875L297.21 88.5L279.585 32.75C279.252 31.75 279.085 31 279.085 30.5C279.085 29.0833 280.71 28.375 283.96 28.375H285.71C288.377 28.375 289.877 29.0417 290.21 30.375L299.46 64.25C299.877 65.8333 300.668 69.1667 301.835 74.25H302.585L304.835 64.25L313.96 30.375C314.293 29.0417 315.835 28.375 318.585 28.375H320.085ZM326.887 111.25C325.303 111.25 324.512 110.417 324.512 108.75V107.75C324.512 106.083 325.303 105.25 326.887 105.25H379.762C381.345 105.25 382.137 106.083 382.137 107.75V108.75C382.137 110.417 381.345 111.25 379.762 111.25H326.887ZM405.356 94.75C401.69 94.75 398.44 93.6667 395.606 91.5C392.773 89.25 391.356 85.2917 391.356 79.625V37.625H387.231C386.398 37.625 385.773 37.3333 385.356 36.75C384.94 36.1667 384.731 35.2083 384.731 33.875V32.375C384.731 31.0417 384.94 30.0833 385.356 29.5C385.773 28.9167 386.398 28.625 387.231 28.625H391.356L392.856 15.5C393.023 13.6667 394.356 12.75 396.856 12.75H398.106C400.606 12.75 401.856 13.6667 401.856 15.5V28.625H410.106C411.023 28.625 411.648 28.9167 411.981 29.5C412.398 30.0833 412.606 31.0417 412.606 32.375V33.875C412.606 35.2083 412.398 36.1667 411.981 36.75C411.648 37.3333 411.023 37.625 410.106 37.625H401.856V77.875C401.856 80.875 402.273 82.9583 403.106 84.125C403.94 85.2083 405.148 85.75 406.731 85.75C407.815 85.75 408.731 85.6667 409.481 85.5C410.231 85.25 410.731 85.125 410.981 85.125C411.731 85.125 412.356 85.875 412.856 87.375C413.356 88.875 413.606 90.125 413.606 91.125C413.606 92.4583 412.731 93.4167 410.981 94C409.315 94.5 407.44 94.75 405.356 94.75ZM441.838 94.75C436.255 94.75 431.796 93.0833 428.463 89.75C425.213 86.3333 423.588 81.5417 423.588 75.375C423.588 69.125 425.213 64.3333 428.463 61C431.713 57.6667 435.755 55.4583 440.588 54.375C445.421 53.2083 450.963 52.5833 457.213 52.5V46.625C457.213 43.7917 456.338 41.4583 454.588 39.625C452.838 37.7917 450.088 36.875 446.338 36.875C443.421 36.875 440.838 37.25 438.588 38C436.421 38.6667 434.546 39.4167 432.963 40.25C431.38 41 430.463 41.375 430.213 41.375C429.38 41.375 428.421 40.5833 427.338 39C426.338 37.3333 425.838 36.0833 425.838 35.25C425.838 34.1667 426.796 33.0417 428.713 31.875C430.713 30.7083 433.296 29.75 436.463 29C439.713 28.25 443.046 27.875 446.463 27.875C453.13 27.875 458.338 29.5417 462.088 32.875C465.838 36.2083 467.713 40.8333 467.713 46.75V75.5C467.713 81 467.963 84.9583 468.463 87.375C468.963 89.7083 469.213 91 469.213 91.25C469.213 92.25 468.421 93 466.838 93.5C465.255 93.9167 463.796 94.125 462.463 94.125C461.213 94.125 460.296 93.5 459.713 92.25C459.13 90.9167 458.588 89.0833 458.088 86.75C453.671 92.0833 448.255 94.75 441.838 94.75ZM443.963 84.875C449.38 84.875 453.796 82.5 457.213 77.75V61.625C452.546 61.7083 448.671 62.0417 445.588 62.625C442.588 63.2083 440.005 64.5 437.838 66.5C435.671 68.4167 434.588 71.3333 434.588 75.25C434.588 81.6667 437.713 84.875 443.963 84.875ZM498.269 95.125C495.269 95.125 492.435 94.7083 489.769 93.875C487.185 92.9583 485.102 91.875 483.519 90.625C482.019 89.375 481.269 88.2917 481.269 87.375C481.269 86.4583 481.81 85.1667 482.894 83.5C483.977 81.8333 484.852 81 485.519 81C485.685 81 486.394 81.4583 487.644 82.375C488.977 83.2917 490.477 84.125 492.144 84.875C493.81 85.5417 495.685 85.875 497.769 85.875C500.852 85.875 503.185 85.125 504.769 83.625C506.435 82.0417 507.269 79.75 507.269 76.75C507.269 73.9167 506.352 71.5833 504.519 69.75C502.769 67.8333 500.019 66 496.269 64.25C491.685 62.0833 488.269 59.5833 486.019 56.75C483.852 53.9167 482.769 50.1667 482.769 45.5C482.769 40.25 484.477 36 487.894 32.75C491.394 29.4167 495.81 27.75 501.144 27.75C504.56 27.75 507.727 28.2917 510.644 29.375C513.56 30.4583 515.019 31.7083 515.019 33.125C515.019 34.125 514.519 35.5 513.519 37.25C512.602 39 511.81 39.875 511.144 39.875C510.977 39.875 509.977 39.375 508.144 38.375C506.394 37.2917 504.269 36.75 501.769 36.75C499.352 36.75 497.31 37.4167 495.644 38.75C494.06 40.0833 493.269 41.9583 493.269 44.375C493.269 47.0417 494.06 49.2083 495.644 50.875C497.31 52.5417 499.644 54.125 502.644 55.625C507.81 58.125 511.56 60.9167 513.894 64C516.31 67.0833 517.519 71.25 517.519 76.5C517.519 82.0833 515.685 86.5833 512.019 90C508.352 93.4167 503.769 95.125 498.269 95.125ZM573.961 90.5C574.544 91.4167 574.836 92.0833 574.836 92.5C574.836 93.1667 574.461 93.625 573.711 93.875C572.961 94.125 571.711 94.25 569.961 94.25H567.461C566.128 94.25 565.211 94.1667 564.711 94C564.211 93.8333 563.711 93.375 563.211 92.625L543.711 61.75H542.961V91.5C542.961 93.3333 541.419 94.25 538.336 94.25H536.961C533.794 94.25 532.211 93.3333 532.211 91.5V2.75C532.211 0.916663 533.794 -4.23193e-06 536.961 -4.23193e-06H538.336C541.419 -4.23193e-06 542.961 0.916663 542.961 2.75V58.625H543.586L561.711 30.125C562.378 28.9583 564.169 28.375 567.086 28.375H569.586C570.919 28.375 571.919 28.5417 572.586 28.875C573.336 29.125 573.711 29.5 573.711 30C573.711 30.6667 573.378 31.5417 572.711 32.625L554.586 60.125L573.961 90.5ZM598.854 95.125C595.854 95.125 593.021 94.7083 590.354 93.875C587.771 92.9583 585.688 91.875 584.104 90.625C582.604 89.375 581.854 88.2917 581.854 87.375C581.854 86.4583 582.396 85.1667 583.479 83.5C584.563 81.8333 585.438 81 586.104 81C586.271 81 586.979 81.4583 588.229 82.375C589.563 83.2917 591.063 84.125 592.729 84.875C594.396 85.5417 596.271 85.875 598.354 85.875C601.438 85.875 603.771 85.125 605.354 83.625C607.021 82.0417 607.854 79.75 607.854 76.75C607.854 73.9167 606.938 71.5833 605.104 69.75C603.354 67.8333 600.604 66 596.854 64.25C592.271 62.0833 588.854 59.5833 586.604 56.75C584.438 53.9167 583.354 50.1667 583.354 45.5C583.354 40.25 585.063 36 588.479 32.75C591.979 29.4167 596.396 27.75 601.729 27.75C605.146 27.75 608.313 28.2917 611.229 29.375C614.146 30.4583 615.604 31.7083 615.604 33.125C615.604 34.125 615.104 35.5 614.104 37.25C613.188 39 612.396 39.875 611.729 39.875C611.563 39.875 610.563 39.375 608.729 38.375C606.979 37.2917 604.854 36.75 602.354 36.75C599.938 36.75 597.896 37.4167 596.229 38.75C594.646 40.0833 593.854 41.9583 593.854 44.375C593.854 47.0417 594.646 49.2083 596.229 50.875C597.896 52.5417 600.229 54.125 603.229 55.625C608.396 58.125 612.146 60.9167 614.479 64C616.896 67.0833 618.104 71.25 618.104 76.5C618.104 82.0833 616.271 86.5833 612.604 90C608.938 93.4167 604.354 95.125 598.854 95.125Z" fill="black"/>
</svg>
